<svg xmlns="http://www.w3.org/2000/svg" viewBox="0 0 32 32">
  <defs>
    <linearGradient id="grad" x1="0%" y1="0%" x2="100%" y2="100%">
      <stop offset="0%" style="stop-color:#3B82F6;stop-opacity:1" />
      <stop offset="100%" style="stop-color:#1E40AF;stop-opacity:1" />
    </linearGradient>
  </defs>
  <rect x="0" y="0" width="32" height="32" rx="10" fill="url(#grad)" />
  <path d="M16 8C13 8 10 9 10 9V14C10 19.5 12.5 24.5 16 26C19.5 24.5 22 19.5 22 14V9C22 9 19 8 16 8ZM16 19C14.3 19 13 17.7 13 16C13 14.3 14.3 13 16 13C17.7 13 19 14.3 19 16C19 17.7 17.7 19 16 19Z" fill="white"/>
</svg>
